<svg width="165" height="33" viewBox="0 0 165 33" fill="none" xmlns="http://www.w3.org/2000/svg">
<path d="M50.54 24V8.16H52.927L58.405 19.38L63.883 8.16H66.27V24H63.795V13.847L58.933 24H57.877L53.026 13.847V24H50.54ZM74.7613 24.33C73.5586 24.33 72.5026 24.0697 71.5933 23.549C70.684 23.0283 69.9726 22.306 69.4593 21.382C68.9533 20.458 68.7003 19.3947 68.7003 18.192C68.7003 16.894 68.9496 15.7683 69.4483 14.815C69.947 13.8543 70.64 13.11 71.5273 12.582C72.4146 12.054 73.4413 11.79 74.6073 11.79C75.8393 11.79 76.8843 12.0797 77.7423 12.659C78.6076 13.231 79.2493 14.0413 79.6673 15.09C80.0853 16.1387 80.243 17.3743 80.1403 18.797H77.5113V17.829C77.504 16.5383 77.2766 15.596 76.8293 15.002C76.382 14.408 75.678 14.111 74.7173 14.111C73.632 14.111 72.8253 14.4483 72.2973 15.123C71.7693 15.7903 71.5053 16.7693 71.5053 18.06C71.5053 19.2627 71.7693 20.194 72.2973 20.854C72.8253 21.514 73.5953 21.844 74.6073 21.844C75.26 21.844 75.821 21.701 76.2903 21.415C76.767 21.1217 77.1336 20.7 77.3903 20.15L80.0083 20.942C79.5536 22.0127 78.8496 22.845 77.8963 23.439C76.9503 24.033 75.9053 24.33 74.7613 24.33ZM70.6693 18.797V16.795H78.8423V18.797H70.6693ZM90.4894 24V18.28C90.4894 17.906 90.4638 17.4917 90.4124 17.037C90.3611 16.5823 90.2401 16.146 90.0494 15.728C89.8661 15.3027 89.5874 14.9543 89.2134 14.683C88.8468 14.4117 88.3481 14.276 87.7174 14.276C87.3801 14.276 87.0464 14.331 86.7164 14.441C86.3864 14.551 86.0858 14.7417 85.8144 15.013C85.5504 15.277 85.3378 15.6437 85.1764 16.113C85.0151 16.575 84.9344 17.169 84.9344 17.895L83.3614 17.224C83.3614 16.212 83.5558 15.2953 83.9444 14.474C84.3404 13.6527 84.9198 13 85.6824 12.516C86.4451 12.0247 87.3838 11.779 88.4984 11.779C89.3784 11.779 90.1044 11.9257 90.6764 12.219C91.2484 12.5123 91.7031 12.8863 92.0404 13.341C92.3778 13.7957 92.6271 14.2797 92.7884 14.793C92.9498 15.3063 93.0524 15.794 93.0964 16.256C93.1478 16.7107 93.1734 17.081 93.1734 17.367V24H90.4894ZM82.2504 24V12.12H84.6154V15.805H84.9344V24H82.2504ZM99.3659 24.33C98.5079 24.33 97.7819 24.1687 97.1879 23.846C96.5939 23.516 96.1429 23.0797 95.8349 22.537C95.5342 21.9943 95.3839 21.3967 95.3839 20.744C95.3839 20.172 95.4792 19.6587 95.6699 19.204C95.8606 18.742 96.1539 18.346 96.5499 18.016C96.9459 17.6787 97.4592 17.4037 98.0899 17.191C98.5666 17.037 99.1239 16.8977 99.7619 16.773C100.407 16.6483 101.104 16.5347 101.852 16.432C102.607 16.322 103.396 16.2047 104.217 16.08L103.271 16.619C103.278 15.7977 103.095 15.1927 102.721 14.804C102.347 14.4153 101.716 14.221 100.829 14.221C100.294 14.221 99.7766 14.3457 99.2779 14.595C98.7792 14.8443 98.4309 15.2733 98.2329 15.882L95.8129 15.123C96.1062 14.1183 96.6636 13.3117 97.4849 12.703C98.3136 12.0943 99.4282 11.79 100.829 11.79C101.885 11.79 102.813 11.9623 103.612 12.307C104.419 12.6517 105.016 13.2163 105.405 14.001C105.618 14.419 105.746 14.848 105.79 15.288C105.834 15.7207 105.856 16.1937 105.856 16.707V24H103.535V21.426L103.92 21.844C103.385 22.702 102.758 23.3327 102.039 23.736C101.328 24.132 100.437 24.33 99.3659 24.33ZM99.8939 22.218C100.495 22.218 101.009 22.1117 101.434 21.899C101.859 21.6863 102.197 21.426 102.446 21.118C102.703 20.81 102.875 20.5203 102.963 20.249C103.102 19.9117 103.179 19.5267 103.194 19.094C103.216 18.654 103.227 18.2983 103.227 18.027L104.041 18.269C103.242 18.3937 102.556 18.5037 101.984 18.599C101.412 18.6943 100.921 18.786 100.51 18.874C100.099 18.9547 99.7362 19.0463 99.4209 19.149C99.1129 19.259 98.8526 19.3873 98.6399 19.534C98.4272 19.6807 98.2622 19.8493 98.1449 20.04C98.0349 20.2307 97.9799 20.4543 97.9799 20.711C97.9799 21.0043 98.0532 21.2647 98.1999 21.492C98.3466 21.712 98.5592 21.888 98.8379 22.02C99.1239 22.152 99.4759 22.218 99.8939 22.218ZM115.683 24C114.898 24.1467 114.128 24.209 113.373 24.187C112.625 24.1723 111.954 24.0367 111.36 23.78C110.766 23.516 110.315 23.1017 110.007 22.537C109.735 22.0237 109.592 21.4993 109.578 20.964C109.563 20.4287 109.556 19.8237 109.556 19.149V8.82H112.196V18.995C112.196 19.4717 112.199 19.8897 112.207 20.249C112.221 20.6083 112.298 20.9017 112.438 21.129C112.702 21.569 113.123 21.8147 113.703 21.866C114.282 21.9173 114.942 21.888 115.683 21.778V24ZM107.4 14.199V12.12H115.683V14.199H107.4ZM121.559 24.33C120.701 24.33 119.975 24.1687 119.381 23.846C118.787 23.516 118.336 23.0797 118.028 22.537C117.728 21.9943 117.577 21.3967 117.577 20.744C117.577 20.172 117.673 19.6587 117.863 19.204C118.054 18.742 118.347 18.346 118.743 18.016C119.139 17.6787 119.653 17.4037 120.283 17.191C120.76 17.037 121.317 16.8977 121.955 16.773C122.601 16.6483 123.297 16.5347 124.045 16.432C124.801 16.322 125.589 16.2047 126.41 16.08L125.464 16.619C125.472 15.7977 125.288 15.1927 124.914 14.804C124.54 14.4153 123.91 14.221 123.022 14.221C122.487 14.221 121.97 14.3457 121.471 14.595C120.973 14.8443 120.624 15.2733 120.426 15.882L118.006 15.123C118.3 14.1183 118.857 13.3117 119.678 12.703C120.507 12.0943 121.622 11.79 123.022 11.79C124.078 11.79 125.006 11.9623 125.805 12.307C126.612 12.6517 127.21 13.2163 127.598 14.001C127.811 14.419 127.939 14.848 127.983 15.288C128.027 15.7207 128.049 16.1937 128.049 16.707V24H125.728V21.426L126.113 21.844C125.578 22.702 124.951 23.3327 124.232 23.736C123.521 24.132 122.63 24.33 121.559 24.33ZM122.087 22.218C122.689 22.218 123.202 22.1117 123.627 21.899C124.053 21.6863 124.39 21.426 124.639 21.118C124.896 20.81 125.068 20.5203 125.156 20.249C125.296 19.9117 125.373 19.5267 125.387 19.094C125.409 18.654 125.42 18.2983 125.42 18.027L126.234 18.269C125.435 18.3937 124.749 18.5037 124.177 18.599C123.605 18.6943 123.114 18.786 122.703 18.874C122.293 18.9547 121.93 19.0463 121.614 19.149C121.306 19.259 121.046 19.3873 120.833 19.534C120.621 19.6807 120.456 19.8493 120.338 20.04C120.228 20.2307 120.173 20.4543 120.173 20.711C120.173 21.0043 120.247 21.2647 120.393 21.492C120.54 21.712 120.753 21.888 121.031 22.02C121.317 22.152 121.669 22.218 122.087 22.218ZM135.5 24.33C134.033 24.33 132.842 24 131.925 23.34C131.008 22.68 130.451 21.7523 130.253 20.557L132.959 20.139C133.098 20.7257 133.406 21.1877 133.883 21.525C134.36 21.8623 134.961 22.031 135.687 22.031C136.325 22.031 136.816 21.9063 137.161 21.657C137.513 21.4003 137.689 21.052 137.689 20.612C137.689 20.3407 137.623 20.1243 137.491 19.963C137.366 19.7943 137.088 19.633 136.655 19.479C136.222 19.325 135.559 19.1307 134.664 18.896C133.667 18.632 132.875 18.3497 132.288 18.049C131.701 17.741 131.28 17.378 131.023 16.96C130.766 16.542 130.638 16.036 130.638 15.442C130.638 14.7013 130.832 14.056 131.221 13.506C131.61 12.956 132.152 12.5343 132.849 12.241C133.546 11.9403 134.367 11.79 135.313 11.79C136.237 11.79 137.055 11.933 137.766 12.219C138.485 12.505 139.064 12.912 139.504 13.44C139.944 13.968 140.215 14.5877 140.318 15.299L137.612 15.783C137.546 15.277 137.315 14.8773 136.919 14.584C136.53 14.2907 136.01 14.1257 135.357 14.089C134.734 14.0523 134.231 14.1477 133.85 14.375C133.469 14.595 133.278 14.9067 133.278 15.31C133.278 15.5373 133.355 15.7317 133.509 15.893C133.663 16.0543 133.971 16.2157 134.433 16.377C134.902 16.5383 135.599 16.7363 136.523 16.971C137.469 17.213 138.224 17.4917 138.789 17.807C139.361 18.115 139.772 18.4853 140.021 18.918C140.278 19.3507 140.406 19.875 140.406 20.491C140.406 21.6863 139.97 22.625 139.097 23.307C138.232 23.989 137.033 24.33 135.5 24.33ZM142.793 24L142.815 8.16H145.499V17.84L149.844 12.12H153.155L148.546 18.06L153.551 24H150.042L145.499 18.28V24H142.793ZM159.025 24.33C157.559 24.33 156.367 24 155.45 23.34C154.534 22.68 153.976 21.7523 153.778 20.557L156.484 20.139C156.624 20.7257 156.932 21.1877 157.408 21.525C157.885 21.8623 158.486 22.031 159.212 22.031C159.85 22.031 160.342 21.9063 160.686 21.657C161.038 21.4003 161.214 21.052 161.214 20.612C161.214 20.3407 161.148 20.1243 161.016 19.963C160.892 19.7943 160.613 19.633 160.18 19.479C159.748 19.325 159.084 19.1307 158.189 18.896C157.192 18.632 156.4 18.3497 155.813 18.049C155.227 17.741 154.805 17.378 154.548 16.96C154.292 16.542 154.163 16.036 154.163 15.442C154.163 14.7013 154.358 14.056 154.746 13.506C155.135 12.956 155.678 12.5343 156.374 12.241C157.071 11.9403 157.892 11.79 158.838 11.79C159.762 11.79 160.58 11.933 161.291 12.219C162.01 12.505 162.589 12.912 163.029 13.44C163.469 13.968 163.741 14.5877 163.843 15.299L161.137 15.783C161.071 15.277 160.84 14.8773 160.444 14.584C160.056 14.2907 159.535 14.1257 158.882 14.089C158.259 14.0523 157.757 14.1477 157.375 14.375C156.994 14.595 156.803 14.9067 156.803 15.31C156.803 15.5373 156.88 15.7317 157.034 15.893C157.188 16.0543 157.496 16.2157 157.958 16.377C158.428 16.5383 159.124 16.7363 160.048 16.971C160.994 17.213 161.75 17.4917 162.314 17.807C162.886 18.115 163.297 18.4853 163.546 18.918C163.803 19.3507 163.931 19.875 163.931 20.491C163.931 21.6863 163.495 22.625 162.622 23.307C161.757 23.989 160.558 24.33 159.025 24.33Z" fill="#6956E5"/>
<path d="M26.0425 7.45248L18.9337 3.34123C17.5725 2.55748 15.4412 2.55748 14.08 3.34123L6.90249 7.47998C4.05624 9.40498 3.89124 9.69373 3.89124 12.76V20.2262C3.89124 23.2925 4.05624 23.595 6.95749 25.5475L14.0662 29.6587C14.7537 30.0575 15.6337 30.25 16.5 30.25C17.3662 30.25 18.2462 30.0575 18.92 29.6587L26.0975 25.52C28.9437 23.595 29.1087 23.3062 29.1087 20.24V12.76C29.1087 9.69373 28.9437 9.40498 26.0425 7.45248Z" fill="#6956E5"/>
<path d="M16.5 20.9688C18.968 20.9688 20.9688 18.968 20.9688 16.5C20.9688 14.032 18.968 12.0312 16.5 12.0312C14.032 12.0312 12.0312 14.032 12.0312 16.5C12.0312 18.968 14.032 20.9688 16.5 20.9688Z" fill="white"/>
</svg>
